<svg xmlns="http://www.w3.org/2000/svg" width="52.59" height="51.83" viewBox="0 0 52.59 51.83"><g transform="translate(0 0)"><path d="M397.347,250.685a20.635,20.635,0,0,1,.291,3.449,20.431,20.431,0,1,1-9.821-17.468l3.5-4.268a25.882,25.882,0,1,0,10.312,13.063Z" transform="translate(-351.285 -228.219)" fill="#fff"/><path d="M408.513,268.59a1.17,1.17,0,0,1-.067-1.648l5.224-5.664a1.169,1.169,0,0,1,1.647-.066l9.071,8.37a1.089,1.089,0,0,0,1.6-.112l17.558-21.44a1.169,1.169,0,0,1,1.641-.163l5.963,4.883a1.169,1.169,0,0,1,.163,1.64l-24.3,29.679a1.089,1.089,0,0,1-1.6.112Z" transform="translate(-398.982 -244.482)" fill="#fff"/></g></svg>