<svg xmlns="http://www.w3.org/2000/svg" width="42.923" height="39.227" viewBox="0 0 42.923 39.227"><path d="M-92.744-152.993c-.875-.813-1.717-1.625-2.591-2.4q-3.685-3.277-7.391-6.529c-2.014-1.767-4.057-3.5-5.927-5.427a20.892,20.892,0,0,1-3.713-4.952,15.931,15.931,0,0,1-1.551-4.839,22.921,22.921,0,0,1-.272-4.494,10.692,10.692,0,0,1,7.244-9.907,11.212,11.212,0,0,1,12.037,2.861,13.228,13.228,0,0,1,2.035,2.571c.035.056.072.11.129.2l.156-.244a13.116,13.116,0,0,1,5.122-4.812,10.987,10.987,0,0,1,6.009-1.193,10.783,10.783,0,0,1,7.094,3.271,10.686,10.686,0,0,1,2.948,6.055,18.59,18.59,0,0,1,.01,4.319,17.645,17.645,0,0,1-.878,4.243,16.933,16.933,0,0,1-3.282,5.529,50.726,50.726,0,0,1-5.085,4.97c-2.644,2.325-5.307,4.629-7.943,6.965-1.355,1.2-2.666,2.451-4,3.678Z" transform="translate(114.207 192.219)" fill="#fff"/></svg>