<svg xmlns="http://www.w3.org/2000/svg" width="17.875" height="17.875" viewBox="0 0 17.875 17.875"><path d="M8.937,1.589a27.4,27.4,0,0,1,3.575.1,4.606,4.606,0,0,1,1.688.3,3.487,3.487,0,0,1,1.688,1.688,4.606,4.606,0,0,1,.3,1.688c0,.894.1,1.192.1,3.575a27.4,27.4,0,0,1-.1,3.575,4.606,4.606,0,0,1-.3,1.688A3.487,3.487,0,0,1,14.2,15.889a4.606,4.606,0,0,1-1.688.3c-.894,0-1.192.1-3.575.1a27.4,27.4,0,0,1-3.575-.1,4.606,4.606,0,0,1-1.688-.3A3.488,3.488,0,0,1,1.986,14.2a4.606,4.606,0,0,1-.3-1.688c0-.894-.1-1.192-.1-3.575a27.4,27.4,0,0,1,.1-3.575,4.606,4.606,0,0,1,.3-1.688,3.567,3.567,0,0,1,.7-.993,1.679,1.679,0,0,1,.993-.7,4.606,4.606,0,0,1,1.688-.3,27.4,27.4,0,0,1,3.575-.1M8.937,0A29.341,29.341,0,0,0,5.263.1,6.131,6.131,0,0,0,3.078.5,3.887,3.887,0,0,0,1.49,1.49,3.887,3.887,0,0,0,.5,3.078,4.525,4.525,0,0,0,.1,5.263,29.341,29.341,0,0,0,0,8.937a29.341,29.341,0,0,0,.1,3.674A6.131,6.131,0,0,0,.5,14.8a3.887,3.887,0,0,0,.993,1.589,3.887,3.887,0,0,0,1.589.993,6.131,6.131,0,0,0,2.185.4,29.342,29.342,0,0,0,3.674.1,29.342,29.342,0,0,0,3.674-.1,6.131,6.131,0,0,0,2.185-.4A4.166,4.166,0,0,0,17.378,14.8a6.131,6.131,0,0,0,.4-2.185c0-.993.1-1.291.1-3.674a29.342,29.342,0,0,0-.1-3.674,6.131,6.131,0,0,0-.4-2.185,3.887,3.887,0,0,0-.993-1.589A3.887,3.887,0,0,0,14.8.5,6.131,6.131,0,0,0,12.612.1,29.341,29.341,0,0,0,8.937,0m0,4.369A4.494,4.494,0,0,0,4.369,8.937,4.568,4.568,0,1,0,8.937,4.369m0,7.547A2.926,2.926,0,0,1,5.958,8.937,2.926,2.926,0,0,1,8.937,5.958a2.926,2.926,0,0,1,2.979,2.979,2.926,2.926,0,0,1-2.979,2.979M13.7,3.078A1.092,1.092,0,1,0,14.8,4.171,1.1,1.1,0,0,0,13.7,3.078" fill="#232f5d" fill-rule="evenodd"/></svg>