<svg xmlns="http://www.w3.org/2000/svg" width="34.69" height="56.827" viewBox="0 0 34.69 56.827"><path d="M777.271,500.731c2.42.367,4.685.832,7.176.294a13.137,13.137,0,0,0,6.286-3.442c2.7-2.544,3.46-5.393,3.858-8.595.534-4.287-1.406-8.32-.341-12.642.485-1.97,1.847-2.87,2.777-4.489a1.677,1.677,0,0,0,.207-1.273,1.64,1.64,0,0,0-1.6-1.134c-.977.061-2.261,1.4-2.877,2.148a9.243,9.243,0,0,0-1.766,3.686c-.819,3.371.01,6.542-.009,9.9-.015,2.7-.724,6.509-2.938,8.179.83-.626.776-4.566.84-5.537a16.393,16.393,0,0,0-1.069-7.153c-.737-1.836-1.634-3.2-2.226-5.1a10.06,10.06,0,0,0-1.4-2.833,6.165,6.165,0,0,1-1.121-3.831,9.163,9.163,0,0,0-1.952-5.754c-1.032-1.431.089-2.951.231-4.481.266-2.856-1.4-4.9-2.3-7.408-.464-1.291-.726-2.628-1.281-3.88a8.82,8.82,0,0,0-1.036-1.8c-.3-.39-.691-1.024-1.189-1.132-.832-.179-1.343,1.132-1.528,1.783a20.9,20.9,0,0,0-.436,3.116,3.088,3.088,0,0,1-.195.865c-.3.685-.994.77-1.6.953a7.832,7.832,0,0,0-2.325,1.213,2.723,2.723,0,0,1-.911.5c-1.413.339-3.754-2.947-5.057-1.729-.668.624.583,2.945.867,3.513.314.628.652,1.242,1,1.851a7.853,7.853,0,0,1,1.136,2c.192.886-.255,1.635.7,3.884a14.288,14.288,0,0,1,.87,1.991,15.762,15.762,0,0,1-.167,2.711c-.064,2.181.192,3.271-.32,4.362a49.207,49.207,0,0,0-1.641,5.09c-.862,2.562-1.382,3.806-2.319,6.209-1.9,4.874-1.387,14.287,3.633,16.912,2.65,1.385,6.063.53,8.922.892C776.54,500.622,776.907,500.675,777.271,500.731Z" transform="translate(-762.594 -444.442)" fill="#fff"/></svg>