<svg xmlns="http://www.w3.org/2000/svg" width="45.863" height="54.136" viewBox="0 0 45.863 54.136"><path d="M293.524,155.651c.155.293.343.622.51.918,1.593,2.807,4.56,8.031,1.063,13.981-3.562,6.063-2.223,10.909-1.107,13.257a1.673,1.673,0,0,0,1.859.911,3.641,3.641,0,0,1,3.073.488,3.458,3.458,0,0,1,1.195,2.7,1.749,1.749,0,0,1-1.749,1.834H293.2a3.279,3.279,0,0,1-2.989-1.939c-.723-1.618-1.924-4.407-3.019-7.408a.236.236,0,0,0-.434-.019,19.719,19.719,0,0,1-2.306,3.608.235.235,0,0,0,.2.381,5.178,5.178,0,0,1,3.343.869,4.867,4.867,0,0,1,1.845,3.7.81.81,0,0,1-.81.81H267.593a10.935,10.935,0,0,1-6.516-2.154c-3.177-2.379-7.966-7.772-4.349-17.167,3.483-9.038,2.8-10.963,2.633-11.247a.124.124,0,0,1-.032,0c-.341-.03-3.342-.366-4.344-2.441-.593-1.22-.333-2.7.769-4.388a4.957,4.957,0,0,1,4.707-2.589,7.791,7.791,0,0,1,5.724,4.036c1.165,2.658-.079,7.339-1.632,10.831a51.319,51.319,0,0,0-3.075,9.582,10.856,10.856,0,0,0,1.829,8.638c.023.032.048.067.071.1-2.047-4.8-1.13-10.363,2.783-16.951,2.557-4.305,6.093-6.524,8.934-8.307,3.277-2.054,5.644-3.538,5.644-7.1a9.675,9.675,0,0,1,5.319-9.047,1.848,1.848,0,0,0,.98-1.663,9.254,9.254,0,0,1,.771-3.492,1.255,1.255,0,0,1,2.328.03c.241.619.507,1.227.787,1.809a7.656,7.656,0,0,0,4.312,3.8,5.528,5.528,0,0,1,3.8,4.506,8.333,8.333,0,0,0,1.007,3.362,2.738,2.738,0,0,1,.13,2.941c-.71,1.22-2.484,3.165-6.393,2.48h-.006A.236.236,0,0,0,293.524,155.651Z" transform="translate(-254.675 -135.606)" fill="#fff"/></svg>