<svg xmlns="http://www.w3.org/2000/svg" width="42.329" height="55.304" viewBox="0 0 42.329 55.304"><path d="M77.169,184.973a3.811,3.811,0,0,0-2.65.61c-.206.135-.411-.04-.367-.282a47.282,47.282,0,0,0,.619-8.441A23.929,23.929,0,0,0,72.447,166.4a7.883,7.883,0,0,1-.511-1.713c-.074-.393-.34-1.228-.086-1.583.176-.246.616-.269.885-.366a7.942,7.942,0,0,0,.753,5.193c.4.083.616-1.055.711-1.322.742-2.086,3.356-2.821,4.906-4.15a2.758,2.758,0,0,0,.321-3.429,11.626,11.626,0,0,1-1.244-3.459c-.1-.895.22-2.649-.495-3.888s-2.893-1.1-3.214-1.206-.595-.923-1.878-2.024a6.043,6.043,0,0,0-2.978-1.272,6.464,6.464,0,0,0-3.359-.029c-1.647.5-2.253,1.139-2.591,1.106s-2.262-.8-3.452.051-1.659,2.358-2.142,3.133a12.311,12.311,0,0,1-2.638,2.662c-.87.622-1.789,1.963-1.2,3.249s1.775,2.476,2.105,3.381a9.174,9.174,0,0,1,.639,2.243c.007.475-.317,1.421-.011,1.563s1.187-1.122,1.3-1.248a6.819,6.819,0,0,0,1.631-3.174c-.024.106.333.295.4.359.644.626.392,1.979.345,2.789a9.273,9.273,0,0,1-.671,3.135,23.93,23.93,0,0,0-2.323,10.461,47.4,47.4,0,0,0,.537,7.962.47.47,0,0,1-.672.536,3.739,3.739,0,0,0-2.263-.385c-1.949.285-3.148,2.206-2.548,4.627.791,3.192,3.31,5.322,4.946,8.041.6,1,.386,1,.386,1l-.789-.1a28.794,28.794,0,0,0-9.654-.839,24.914,24.914,0,0,0-5.334,1.2,13.426,13.426,0,0,0-4.567,2.32.4.4,0,0,0-.141.215c-.028.178.167.31.341.382a6.323,6.323,0,0,0,2.068.383c4.864.273,9.754-.667,14.614-.789.84-.021,1.684-.02,2.526,0a92.056,92.056,0,0,0,9.542.187c5.045-.015,9.957-.077,10.025-.613.017-.132,1.405-.187,1.574-.827a1.031,1.031,0,0,0-.562-1.121c-.141-.053-.281-.347-.618-.56s-1.258,0-1.258,0l-1.626.169a14.5,14.5,0,0,0,1.175-1.746c.708-.9,1.483-1.747,2.18-2.657C79.228,192.017,81.9,185.664,77.169,184.973Z" transform="translate(-37.544 -146.936)" fill="#fff"/></svg>