<svg xmlns="http://www.w3.org/2000/svg" width="59.027" height="48.199" viewBox="0 0 59.027 48.199"><path d="M943.365,1297.179c-.238-.11-4.494-1.859-4.974-2.506-.231-.311-1.165-1.645-1.165-1.645-1.449-2-6.472-1.39-7.686-.92a2.155,2.155,0,0,0-.654.469,19.776,19.776,0,0,0-3.574,2.5c-1.175,1.1-.94,1.645-.744,2.193a4.993,4.993,0,0,0,.636,1.121c-.9,1.412-3.032,3.585-8.231,4.017-1.25.1-4.485.3-10.753.3a19.257,19.257,0,0,0-8.752,1.746,14.268,14.268,0,0,1-4.658-.982,10.971,10.971,0,0,1-5.19-7.285,25.179,25.179,0,0,1-.388-5.129,1.478,1.478,0,0,0-.317-.824c-.744-.862-2.212,0-2.252,2.741-.036,2.523.229,6.97,3.141,10.686.252.322.522.638.815.947.339.357.671.682.993.981a27.233,27.233,0,0,0,3.737,2.834c-.893,2.164-.507,4.91-.507,7.309,0,2.859.865,5.6.395,6.619s-2.252,5.111-2.252,5.111c-1.1,3.407-.313,9.966-.089,10.184.421.409,1.91.509,3.055.45a4.694,4.694,0,0,0,1.381-.175c.617-.323.764-.646.676-.969s-.573-1.392-.94-1.529c-1.028-.382-.7-2.87-.7-4.729,0-2.163,3.237-5.175,4.862-6.926,1.935-2.084,3.134-4.852,3.663-5.175a8.462,8.462,0,0,1,3.437-.647c1.83.092,4.509,1.357,9.346,2.4,2.629.566,2.316,1.948,2.257,2.3s.206,2.556.382,4.289.676,5.755,1,7.4.617,3.231,1.117,3.525a14.829,14.829,0,0,0,3.434.206c1.469,0,2.134-.354,1.911-1.056-.382-1.205-2.419-1.656-2.575-1.773a27.666,27.666,0,0,1-.176-5.229,37.312,37.312,0,0,1,1.135-5.128c.274-1.018.265-2.839,2.38-4.563a15.035,15.035,0,0,0,3.87-4.7c2.086-4.4,3.868-10.424,5.441-12.048a5.056,5.056,0,0,1,2.146-.961,29.17,29.17,0,0,0,3.761-1.018.987.987,0,0,0,.517-.549,9.919,9.919,0,0,0,1.194-2.577C943.8,1297.664,943.754,1297.359,943.365,1297.179Z" transform="translate(-884.66 -1289.906)" fill="#fff"/></svg>