<svg xmlns="http://www.w3.org/2000/svg" width="17.875" height="14.499" viewBox="0 0 17.875 14.499"><path d="M43.66,16.5A10.334,10.334,0,0,0,54.087,6.071v-.5a8.072,8.072,0,0,0,1.787-1.887,8.243,8.243,0,0,1-2.085.6A3.864,3.864,0,0,0,55.378,2.3a9.108,9.108,0,0,1-2.284.894A3.546,3.546,0,0,0,50.413,2a3.731,3.731,0,0,0-3.674,3.674,1.936,1.936,0,0,0,.1.794A10.267,10.267,0,0,1,39.291,2.6a3.8,3.8,0,0,0-.5,1.887,3.945,3.945,0,0,0,1.589,3.078,3.348,3.348,0,0,1-1.688-.5h0a3.629,3.629,0,0,0,2.979,3.575,3.061,3.061,0,0,1-.993.1,1.69,1.69,0,0,1-.7-.1,3.762,3.762,0,0,0,3.476,2.582,7.5,7.5,0,0,1-4.568,1.589,2.749,2.749,0,0,1-.894-.1A9.373,9.373,0,0,0,43.66,16.5" transform="translate(-38 -2)" fill="#232f5d" fill-rule="evenodd"/></svg>