<svg xmlns="http://www.w3.org/2000/svg" width="58.296" height="51.123" viewBox="0 0 58.296 51.123"><path d="M182.608,140.215l-7.232,3.484c-3.076,1.191-8.511-.318-12.874-1.771a24.2,24.2,0,0,0-15.648,0c-4.363,1.453-9.8,2.962-12.874,1.771l-7.232-3.484-1.218,5.157s3.093,2.272,5.283,4.265,3.741,3.464,3.006,6.038a17.345,17.345,0,0,0-.673,4.784c0,6.707,3.841,12.632,9.72,16.22,4.7,2.867,7.162,5.784,7.763,8.827,0,0,.295,4.627,1.416,5.5a10.638,10.638,0,0,0,5.266,0c1.122-.869,1.416-5.5,1.416-5.5.6-3.043,3.062-5.965,7.763-8.832,5.879-3.588,9.72-9.51,9.72-16.217a17.327,17.327,0,0,0-.674-4.783c-.734-2.574.822-4.049,3.006-6.037s5.284-4.265,5.284-4.265Z" transform="translate(-125.53 -140.215)" fill="#fff"/></svg>